<mxfile host="Electron" agent="Mozilla/5.0 (Windows NT 10.0; Win64; x64) AppleWebKit/537.36 (KHTML, like Gecko) draw.io/28.0.6 Chrome/138.0.7204.100 Electron/37.2.3 Safari/537.36" version="28.0.6">
  <diagram name="Page-1" id="gWeTuOYLlxk8N8AEY2F1">
    <mxGraphModel dx="2153" dy="783" grid="1" gridSize="10" guides="1" tooltips="1" connect="1" arrows="1" fold="1" page="1" pageScale="1" pageWidth="850" pageHeight="1100" math="0" shadow="0">
      <root>
        <mxCell id="0" />
        <mxCell id="1" parent="0" />
        <mxCell id="eFgg2rN6b1Ug6eKXc5hU-1" value="" style="rounded=0;whiteSpace=wrap;html=1;fillColor=none;dashed=1;strokeColor=light-dark(#b9b1b1, #ededed);" parent="1" vertex="1">
          <mxGeometry x="-610" y="150" width="150" height="450" as="geometry" />
        </mxCell>
        <mxCell id="eFgg2rN6b1Ug6eKXc5hU-3" value="&lt;font style=&quot;font-size: 20px;&quot;&gt;Sources&lt;/font&gt;" style="rounded=0;whiteSpace=wrap;html=1;" parent="1" vertex="1">
          <mxGeometry x="-570" y="130" width="90" height="30" as="geometry" />
        </mxCell>
        <mxCell id="eFgg2rN6b1Ug6eKXc5hU-23" style="edgeStyle=orthogonalEdgeStyle;rounded=0;orthogonalLoop=1;jettySize=auto;html=1;entryX=0;entryY=0.75;entryDx=0;entryDy=0;" parent="1" source="eFgg2rN6b1Ug6eKXc5hU-6" target="eFgg2rN6b1Ug6eKXc5hU-17" edge="1">
          <mxGeometry relative="1" as="geometry" />
        </mxCell>
        <mxCell id="yVRVgqZ4m0UX4qtvLZ14-3" style="edgeStyle=orthogonalEdgeStyle;rounded=0;orthogonalLoop=1;jettySize=auto;html=1;entryX=0;entryY=0.5;entryDx=0;entryDy=0;" parent="1" source="eFgg2rN6b1Ug6eKXc5hU-6" target="eFgg2rN6b1Ug6eKXc5hU-19" edge="1">
          <mxGeometry relative="1" as="geometry" />
        </mxCell>
        <mxCell id="eFgg2rN6b1Ug6eKXc5hU-6" value="&lt;b&gt;CRM&lt;/b&gt;" style="image;aspect=fixed;html=1;points=[];align=center;fontSize=12;image=img/lib/azure2/general/Folder_Blank.svg;" parent="1" vertex="1">
          <mxGeometry x="-557.32" y="258.76" width="64.65" height="52.47" as="geometry" />
        </mxCell>
        <mxCell id="eFgg2rN6b1Ug6eKXc5hU-28" style="edgeStyle=orthogonalEdgeStyle;rounded=0;orthogonalLoop=1;jettySize=auto;html=1;entryX=0;entryY=0.75;entryDx=0;entryDy=0;" parent="1" source="eFgg2rN6b1Ug6eKXc5hU-7" target="eFgg2rN6b1Ug6eKXc5hU-24" edge="1">
          <mxGeometry relative="1" as="geometry" />
        </mxCell>
        <mxCell id="eFgg2rN6b1Ug6eKXc5hU-7" value="&lt;b&gt;ERP&lt;/b&gt;" style="image;aspect=fixed;html=1;points=[];align=center;fontSize=12;image=img/lib/azure2/general/Folder_Blank.svg;" parent="1" vertex="1">
          <mxGeometry x="-555.8" y="440" width="61.61" height="50" as="geometry" />
        </mxCell>
        <mxCell id="eFgg2rN6b1Ug6eKXc5hU-15" value="" style="rounded=1;whiteSpace=wrap;html=1;fillColor=none;strokeColor=#d79b00;" parent="1" vertex="1">
          <mxGeometry x="-400" y="210" width="160" height="390" as="geometry" />
        </mxCell>
        <mxCell id="eFgg2rN6b1Ug6eKXc5hU-16" value="&lt;font style=&quot;font-size: 16px;&quot;&gt;Bronze Layer&lt;/font&gt;" style="rounded=1;whiteSpace=wrap;html=1;fillColor=#ffe6cc;strokeColor=#d79b00;" parent="1" vertex="1">
          <mxGeometry x="-395" y="150" width="150" height="50" as="geometry" />
        </mxCell>
        <mxCell id="yVRVgqZ4m0UX4qtvLZ14-16" style="edgeStyle=orthogonalEdgeStyle;rounded=0;orthogonalLoop=1;jettySize=auto;html=1;entryX=0;entryY=0.5;entryDx=0;entryDy=0;" parent="1" source="eFgg2rN6b1Ug6eKXc5hU-17" target="yVRVgqZ4m0UX4qtvLZ14-10" edge="1">
          <mxGeometry relative="1" as="geometry" />
        </mxCell>
        <mxCell id="eFgg2rN6b1Ug6eKXc5hU-17" value="&lt;span style=&quot;font-size: 16px;&quot;&gt;crm_sales_details&lt;/span&gt;" style="rounded=1;whiteSpace=wrap;html=1;fillColor=#ffe6cc;strokeColor=#d79b00;" parent="1" vertex="1">
          <mxGeometry x="-395" y="230" width="150" height="30" as="geometry" />
        </mxCell>
        <mxCell id="yVRVgqZ4m0UX4qtvLZ14-18" style="edgeStyle=orthogonalEdgeStyle;rounded=0;orthogonalLoop=1;jettySize=auto;html=1;entryX=0;entryY=0.5;entryDx=0;entryDy=0;" parent="1" source="eFgg2rN6b1Ug6eKXc5hU-19" target="yVRVgqZ4m0UX4qtvLZ14-11" edge="1">
          <mxGeometry relative="1" as="geometry" />
        </mxCell>
        <mxCell id="eFgg2rN6b1Ug6eKXc5hU-19" value="&lt;span style=&quot;font-size: 16px;&quot;&gt;crm_cust_info&lt;/span&gt;" style="rounded=1;whiteSpace=wrap;html=1;fillColor=#ffe6cc;strokeColor=#d79b00;" parent="1" vertex="1">
          <mxGeometry x="-395" y="270" width="150" height="30" as="geometry" />
        </mxCell>
        <mxCell id="yVRVgqZ4m0UX4qtvLZ14-19" style="edgeStyle=orthogonalEdgeStyle;rounded=0;orthogonalLoop=1;jettySize=auto;html=1;entryX=0;entryY=0.5;entryDx=0;entryDy=0;" parent="1" source="eFgg2rN6b1Ug6eKXc5hU-20" target="yVRVgqZ4m0UX4qtvLZ14-12" edge="1">
          <mxGeometry relative="1" as="geometry" />
        </mxCell>
        <mxCell id="eFgg2rN6b1Ug6eKXc5hU-20" value="&lt;span style=&quot;font-size: 16px;&quot;&gt;crm_prd_info&lt;/span&gt;" style="rounded=1;whiteSpace=wrap;html=1;fillColor=#ffe6cc;strokeColor=#d79b00;" parent="1" vertex="1">
          <mxGeometry x="-395" y="320" width="150" height="30" as="geometry" />
        </mxCell>
        <mxCell id="yVRVgqZ4m0UX4qtvLZ14-20" style="edgeStyle=orthogonalEdgeStyle;rounded=0;orthogonalLoop=1;jettySize=auto;html=1;" parent="1" source="eFgg2rN6b1Ug6eKXc5hU-24" target="yVRVgqZ4m0UX4qtvLZ14-13" edge="1">
          <mxGeometry relative="1" as="geometry" />
        </mxCell>
        <mxCell id="eFgg2rN6b1Ug6eKXc5hU-24" value="&lt;span style=&quot;font-size: 16px;&quot;&gt;erp_cust_az12&lt;/span&gt;" style="rounded=1;whiteSpace=wrap;html=1;fillColor=#ffe6cc;strokeColor=#d79b00;" parent="1" vertex="1">
          <mxGeometry x="-395" y="400" width="150" height="30" as="geometry" />
        </mxCell>
        <mxCell id="yVRVgqZ4m0UX4qtvLZ14-21" style="edgeStyle=orthogonalEdgeStyle;rounded=0;orthogonalLoop=1;jettySize=auto;html=1;" parent="1" source="eFgg2rN6b1Ug6eKXc5hU-25" target="yVRVgqZ4m0UX4qtvLZ14-14" edge="1">
          <mxGeometry relative="1" as="geometry" />
        </mxCell>
        <mxCell id="eFgg2rN6b1Ug6eKXc5hU-25" value="&lt;span style=&quot;font-size: 16px;&quot;&gt;erp_loc_a101&lt;/span&gt;" style="rounded=1;whiteSpace=wrap;html=1;fillColor=#ffe6cc;strokeColor=#d79b00;" parent="1" vertex="1">
          <mxGeometry x="-395" y="450" width="150" height="30" as="geometry" />
        </mxCell>
        <mxCell id="eFgg2rN6b1Ug6eKXc5hU-26" value="&lt;span style=&quot;font-size: 16px;&quot;&gt;erp_px_cat_g1v2&lt;/span&gt;" style="rounded=1;whiteSpace=wrap;html=1;fillColor=#ffe6cc;strokeColor=#d79b00;" parent="1" vertex="1">
          <mxGeometry x="-395" y="500" width="150" height="30" as="geometry" />
        </mxCell>
        <mxCell id="yVRVgqZ4m0UX4qtvLZ14-5" style="edgeStyle=orthogonalEdgeStyle;rounded=0;orthogonalLoop=1;jettySize=auto;html=1;entryX=-0.014;entryY=0.325;entryDx=0;entryDy=0;entryPerimeter=0;" parent="1" source="eFgg2rN6b1Ug6eKXc5hU-6" target="eFgg2rN6b1Ug6eKXc5hU-15" edge="1">
          <mxGeometry relative="1" as="geometry" />
        </mxCell>
        <mxCell id="yVRVgqZ4m0UX4qtvLZ14-6" style="edgeStyle=orthogonalEdgeStyle;rounded=0;orthogonalLoop=1;jettySize=auto;html=1;entryX=-0.007;entryY=0.804;entryDx=0;entryDy=0;entryPerimeter=0;" parent="1" source="eFgg2rN6b1Ug6eKXc5hU-7" target="eFgg2rN6b1Ug6eKXc5hU-15" edge="1">
          <mxGeometry relative="1" as="geometry" />
        </mxCell>
        <mxCell id="yVRVgqZ4m0UX4qtvLZ14-7" style="edgeStyle=orthogonalEdgeStyle;rounded=0;orthogonalLoop=1;jettySize=auto;html=1;entryX=0.02;entryY=0.667;entryDx=0;entryDy=0;entryPerimeter=0;" parent="1" source="eFgg2rN6b1Ug6eKXc5hU-7" target="eFgg2rN6b1Ug6eKXc5hU-15" edge="1">
          <mxGeometry relative="1" as="geometry" />
        </mxCell>
        <mxCell id="yVRVgqZ4m0UX4qtvLZ14-8" value="" style="rounded=1;whiteSpace=wrap;html=1;fillColor=none;strokeColor=#666666;fontColor=#333333;" parent="1" vertex="1">
          <mxGeometry x="-130" y="210" width="160" height="390" as="geometry" />
        </mxCell>
        <mxCell id="yVRVgqZ4m0UX4qtvLZ14-9" value="&lt;span style=&quot;font-size: 16px;&quot;&gt;Silver Layer&lt;/span&gt;" style="rounded=1;whiteSpace=wrap;html=1;fillColor=#f5f5f5;strokeColor=#666666;fontColor=#333333;" parent="1" vertex="1">
          <mxGeometry x="-125" y="150" width="150" height="50" as="geometry" />
        </mxCell>
        <mxCell id="yVRVgqZ4m0UX4qtvLZ14-10" value="&lt;span style=&quot;font-size: 16px;&quot;&gt;crm_sales_details&lt;/span&gt;" style="rounded=1;whiteSpace=wrap;html=1;fillColor=#f5f5f5;strokeColor=#666666;fontColor=#333333;" parent="1" vertex="1">
          <mxGeometry x="-125" y="230" width="150" height="30" as="geometry" />
        </mxCell>
        <mxCell id="yVRVgqZ4m0UX4qtvLZ14-11" value="&lt;span style=&quot;font-size: 16px;&quot;&gt;crm_cust_info&lt;/span&gt;" style="rounded=1;whiteSpace=wrap;html=1;fillColor=#f5f5f5;strokeColor=#666666;fontColor=#333333;" parent="1" vertex="1">
          <mxGeometry x="-125" y="270" width="150" height="30" as="geometry" />
        </mxCell>
        <mxCell id="yVRVgqZ4m0UX4qtvLZ14-12" value="&lt;span style=&quot;font-size: 16px;&quot;&gt;crm_prd_info&lt;/span&gt;" style="rounded=1;whiteSpace=wrap;html=1;fillColor=#f5f5f5;strokeColor=#666666;fontColor=#333333;" parent="1" vertex="1">
          <mxGeometry x="-125" y="320" width="150" height="30" as="geometry" />
        </mxCell>
        <mxCell id="yVRVgqZ4m0UX4qtvLZ14-13" value="&lt;span style=&quot;font-size: 16px;&quot;&gt;erp_cust_az12&lt;/span&gt;" style="rounded=1;whiteSpace=wrap;html=1;fillColor=#f5f5f5;strokeColor=#666666;fontColor=#333333;" parent="1" vertex="1">
          <mxGeometry x="-130" y="400" width="150" height="30" as="geometry" />
        </mxCell>
        <mxCell id="yVRVgqZ4m0UX4qtvLZ14-14" value="&lt;span style=&quot;font-size: 16px;&quot;&gt;erp_loc_a101&lt;/span&gt;" style="rounded=1;whiteSpace=wrap;html=1;fillColor=#f5f5f5;strokeColor=#666666;fontColor=#333333;" parent="1" vertex="1">
          <mxGeometry x="-125" y="450" width="150" height="30" as="geometry" />
        </mxCell>
        <mxCell id="yVRVgqZ4m0UX4qtvLZ14-15" value="&lt;span style=&quot;font-size: 16px;&quot;&gt;erp_px_cat_g1v2&lt;/span&gt;" style="rounded=1;whiteSpace=wrap;html=1;fillColor=#f5f5f5;strokeColor=#666666;fontColor=#333333;" parent="1" vertex="1">
          <mxGeometry x="-125" y="500" width="150" height="30" as="geometry" />
        </mxCell>
        <mxCell id="yVRVgqZ4m0UX4qtvLZ14-22" style="edgeStyle=orthogonalEdgeStyle;rounded=0;orthogonalLoop=1;jettySize=auto;html=1;entryX=0.035;entryY=0.779;entryDx=0;entryDy=0;entryPerimeter=0;" parent="1" source="eFgg2rN6b1Ug6eKXc5hU-26" target="yVRVgqZ4m0UX4qtvLZ14-8" edge="1">
          <mxGeometry relative="1" as="geometry" />
        </mxCell>
        <mxCell id="LZYqi3vr3IkZ-On9OiKv-1" value="" style="rounded=1;whiteSpace=wrap;html=1;fillColor=none;strokeColor=#d6b656;" vertex="1" parent="1">
          <mxGeometry x="140" y="210" width="160" height="390" as="geometry" />
        </mxCell>
        <mxCell id="LZYqi3vr3IkZ-On9OiKv-2" value="&lt;span style=&quot;font-size: 16px;&quot;&gt;Gold Layer&lt;/span&gt;" style="rounded=1;whiteSpace=wrap;html=1;fillColor=#fff2cc;strokeColor=#d6b656;" vertex="1" parent="1">
          <mxGeometry x="150" y="150" width="150" height="50" as="geometry" />
        </mxCell>
        <mxCell id="LZYqi3vr3IkZ-On9OiKv-3" value="&lt;span style=&quot;font-size: 16px;&quot;&gt;fact_sales&lt;/span&gt;" style="rounded=1;whiteSpace=wrap;html=1;fillColor=#fff2cc;strokeColor=#d6b656;" vertex="1" parent="1">
          <mxGeometry x="145" y="270" width="150" height="30" as="geometry" />
        </mxCell>
        <mxCell id="LZYqi3vr3IkZ-On9OiKv-4" value="&lt;span style=&quot;font-size: 16px;&quot;&gt;dim_customers&lt;/span&gt;" style="rounded=1;whiteSpace=wrap;html=1;fillColor=#fff2cc;strokeColor=#d6b656;" vertex="1" parent="1">
          <mxGeometry x="145" y="390" width="150" height="30" as="geometry" />
        </mxCell>
        <mxCell id="LZYqi3vr3IkZ-On9OiKv-5" value="&lt;span style=&quot;font-size: 16px;&quot;&gt;dim_prodcuts&lt;/span&gt;" style="rounded=1;whiteSpace=wrap;html=1;fillColor=#fff2cc;strokeColor=#d6b656;" vertex="1" parent="1">
          <mxGeometry x="145" y="450" width="150" height="30" as="geometry" />
        </mxCell>
        <mxCell id="LZYqi3vr3IkZ-On9OiKv-11" value="" style="endArrow=classic;html=1;rounded=0;entryX=0.006;entryY=0.329;entryDx=0;entryDy=0;entryPerimeter=0;exitX=0.994;exitY=0.091;exitDx=0;exitDy=0;exitPerimeter=0;" edge="1" parent="1" source="yVRVgqZ4m0UX4qtvLZ14-8">
          <mxGeometry width="50" height="50" relative="1" as="geometry">
            <mxPoint x="39.04" y="210" as="sourcePoint" />
            <mxPoint x="150.00000000000003" y="288.3100000000002" as="targetPoint" />
          </mxGeometry>
        </mxCell>
        <mxCell id="LZYqi3vr3IkZ-On9OiKv-12" value="" style="endArrow=classic;html=1;rounded=0;exitX=0.981;exitY=0.201;exitDx=0;exitDy=0;exitPerimeter=0;jumpStyle=gap;" edge="1" parent="1" source="yVRVgqZ4m0UX4qtvLZ14-8">
          <mxGeometry width="50" height="50" relative="1" as="geometry">
            <mxPoint x="60" y="280" as="sourcePoint" />
            <mxPoint x="140" y="405" as="targetPoint" />
          </mxGeometry>
        </mxCell>
        <mxCell id="LZYqi3vr3IkZ-On9OiKv-13" value="" style="endArrow=classic;html=1;rounded=0;entryX=0;entryY=0.5;entryDx=0;entryDy=0;exitX=1.012;exitY=0.529;exitDx=0;exitDy=0;exitPerimeter=0;jumpStyle=gap;" edge="1" parent="1" source="yVRVgqZ4m0UX4qtvLZ14-8" target="LZYqi3vr3IkZ-On9OiKv-1">
          <mxGeometry width="50" height="50" relative="1" as="geometry">
            <mxPoint x="50" y="340" as="sourcePoint" />
            <mxPoint x="168" y="447" as="targetPoint" />
          </mxGeometry>
        </mxCell>
        <mxCell id="LZYqi3vr3IkZ-On9OiKv-14" value="" style="endArrow=classic;html=1;rounded=0;exitX=0.987;exitY=0.673;exitDx=0;exitDy=0;exitPerimeter=0;entryX=0;entryY=0.5;entryDx=0;entryDy=0;jumpStyle=gap;" edge="1" parent="1" source="yVRVgqZ4m0UX4qtvLZ14-8" target="LZYqi3vr3IkZ-On9OiKv-1">
          <mxGeometry width="50" height="50" relative="1" as="geometry">
            <mxPoint x="60" y="470" as="sourcePoint" />
            <mxPoint x="130" y="410" as="targetPoint" />
          </mxGeometry>
        </mxCell>
        <mxCell id="LZYqi3vr3IkZ-On9OiKv-15" value="" style="endArrow=classic;html=1;rounded=0;exitX=1;exitY=0.75;exitDx=0;exitDy=0;entryX=-0.019;entryY=0.655;entryDx=0;entryDy=0;entryPerimeter=0;jumpStyle=gap;" edge="1" parent="1" source="yVRVgqZ4m0UX4qtvLZ14-12" target="LZYqi3vr3IkZ-On9OiKv-1">
          <mxGeometry width="50" height="50" relative="1" as="geometry">
            <mxPoint x="100" y="440" as="sourcePoint" />
            <mxPoint x="150" y="470" as="targetPoint" />
          </mxGeometry>
        </mxCell>
        <mxCell id="LZYqi3vr3IkZ-On9OiKv-16" value="" style="endArrow=classic;html=1;rounded=0;entryX=-0.019;entryY=0.66;entryDx=0;entryDy=0;exitX=1;exitY=0.795;exitDx=0;exitDy=0;exitPerimeter=0;entryPerimeter=0;jumpStyle=gap;" edge="1" parent="1" source="yVRVgqZ4m0UX4qtvLZ14-8" target="LZYqi3vr3IkZ-On9OiKv-1">
          <mxGeometry width="50" height="50" relative="1" as="geometry">
            <mxPoint x="90" y="550" as="sourcePoint" />
            <mxPoint x="208" y="657" as="targetPoint" />
          </mxGeometry>
        </mxCell>
      </root>
    </mxGraphModel>
  </diagram>
</mxfile>
